<svg width="300" height="300" viewBox="0 0 300 300" fill="none" xmlns="http://www.w3.org/2000/svg">
<path d="M184.712 242H113.289C103.226 242 95.0693 233.844 95.0693 223.781V76.2192C95.0693 66.1563 103.226 58 113.289 58H184.712C194.775 58 202.931 66.1563 202.931 76.2192V223.781C202.931 233.844 194.775 242 184.712 242Z" fill="white"/>
<path d="M193.414 77.0344H104.586V213.448H193.414V77.0344Z" fill="#4D7EF0"/>
<path d="M158.517 70.6898H139.483C137.729 70.6898 136.311 69.2717 136.311 67.5174C136.311 65.763 137.729 64.345 139.483 64.345H158.517C160.272 64.345 161.69 65.763 161.69 67.5174C161.69 69.2717 160.272 70.6898 158.517 70.6898Z" fill="#4D7EF0"/>
<path d="M187.069 70.6898H183.897C182.142 70.6898 180.724 69.2717 180.724 67.5174C180.724 65.763 182.142 64.345 183.897 64.345H187.069C188.824 64.345 190.242 65.763 190.242 67.5174C190.242 69.2717 188.824 70.6898 187.069 70.6898Z" fill="#4D7EF0"/>
<path d="M174.379 70.6898H171.207C169.452 70.6898 168.034 69.2717 168.034 67.5174C168.034 65.763 169.452 64.345 171.207 64.345H174.379C176.133 64.345 177.551 65.763 177.551 67.5174C177.551 69.2717 176.133 70.6898 174.379 70.6898Z" fill="#4D7EF0"/>
<path d="M156.931 232.483H141.069C138.452 232.483 136.311 230.341 136.311 227.724C136.311 225.107 138.452 222.966 141.069 222.966H156.931C159.548 222.966 161.69 225.107 161.69 227.724C161.69 230.341 159.548 232.483 156.931 232.483Z" fill="#4D7EF0"/>
<path d="M149 180C165.569 180 179 166.569 179 150C179 133.431 165.569 120 149 120C132.431 120 119 133.431 119 150C119 166.569 132.431 180 149 180Z" fill="#41F6CB"/>
<path d="M141.334 163.533L156.76 178.959C169.536 175.552 179 163.912 179 150C179 149.716 179 149.432 179 149.148L166.887 137.981L141.334 163.533Z" fill="#00D2C5"/>
<path d="M149.757 156.719C151.082 158.044 151.082 160.315 149.757 161.64L147.013 164.385C145.688 165.71 143.416 165.71 142.091 164.385L130.073 152.271C128.748 150.946 128.748 148.675 130.073 147.35L132.817 144.606C134.142 143.281 136.413 143.281 137.738 144.606L149.757 156.719Z" fill="white"/>
<path d="M160.262 135.804C161.587 134.479 163.858 134.479 165.183 135.804L167.927 138.549C169.252 139.874 169.252 142.145 167.927 143.47L147.107 164.196C145.782 165.521 143.511 165.521 142.186 164.196L139.442 161.451C138.117 160.126 138.117 157.855 139.442 156.53L160.262 135.804Z" fill="white"/>
<path d="M219.359 166.679C218.244 166.679 217.128 166.252 216.274 165.407C214.575 163.708 214.575 160.945 216.274 159.246C218.749 156.772 220.108 153.495 220.108 150.001C220.108 146.507 218.749 143.231 216.283 140.756C214.584 139.057 214.584 136.295 216.283 134.595C217.982 132.896 220.744 132.896 222.444 134.595C226.556 138.708 228.822 144.18 228.822 150.001C228.822 155.822 226.556 161.294 222.444 165.407C221.59 166.252 220.474 166.679 219.359 166.679Z" fill="#FFE171"/>
<path d="M231.68 179C230.565 179 229.449 178.573 228.595 177.728C226.896 176.029 226.896 173.266 228.595 171.567C234.364 165.799 237.536 158.148 237.536 150.001C237.536 141.854 234.364 134.195 228.604 128.435C226.905 126.736 226.905 123.974 228.604 122.274C230.303 120.575 233.065 120.575 234.765 122.274C242.171 129.681 246.249 139.527 246.249 150.001C246.249 160.475 242.171 170.321 234.765 177.728C233.911 178.573 232.795 179 231.68 179Z" fill="#FFE171"/>
<path d="M79.89 134.321C81.0054 134.321 82.1207 134.748 82.9747 135.593C84.6738 137.292 84.6738 140.055 82.9747 141.754C80.5 144.228 79.1407 147.505 79.1407 150.999C79.1407 154.493 80.5 157.769 82.9659 160.244C84.6651 161.943 84.6651 164.705 82.9659 166.405C81.2668 168.104 78.5046 168.104 76.8054 166.405C72.6926 162.292 70.4271 156.82 70.4271 150.999C70.4271 145.178 72.6926 139.706 76.8054 135.593C77.6594 134.748 78.7747 134.321 79.89 134.321Z" fill="#FFE171"/>
<path d="M67.569 122C68.6843 122 69.7997 122.427 70.6536 123.272C72.3528 124.971 72.3528 127.734 70.6536 129.433C64.8852 135.201 61.7134 142.852 61.7134 150.999C61.7134 159.146 64.8852 166.805 70.6449 172.565C72.3441 174.264 72.3441 177.026 70.6449 178.726C68.9457 180.425 66.1835 180.425 64.4844 178.726C57.0778 171.319 52.9998 161.473 52.9998 150.999C52.9998 140.525 57.0778 130.679 64.4844 123.272C65.3383 122.427 66.4537 122 67.569 122Z" fill="#FFE171"/>
</svg>
