<svg width="300" height="300" viewBox="0 0 300 300" fill="none" xmlns="http://www.w3.org/2000/svg">
<g clip-path="url(#clip0_101_217)">
<path d="M133.745 190.374C132.822 187.707 129.88 186.314 127.181 187.142L93.8533 197.366L93.2743 195.479L124.174 185.999C126.922 185.156 128.467 182.244 127.623 179.495C126.78 176.747 123.868 175.202 121.12 176.046L92.1373 184.938C92.1373 184.938 92.7636 186.974 92.765 186.983C93.2849 190.522 90.5097 194.219 87.4007 195.355C87.2783 195.4 87.1545 195.442 87.0282 195.48L71.4534 200.259L70.4604 197.021C70.4633 197.016 70.4541 197.016 70.4571 197.011L85.8503 192.288C88.7921 191.386 90.4248 188.223 89.414 185.281C88.45 182.475 85.3581 181.005 82.521 181.876L53.1372 190.891C47.9741 192.475 44.4752 196.94 43.8535 201.983C43.8533 201.987 43.85 201.991 43.8457 201.992C43.8457 201.992 37.4978 203.94 29.328 206.446L39.3651 239.067C47.8669 236.458 54.5332 234.413 54.5332 234.413C54.537 234.412 54.5416 234.413 54.5446 234.416C58.1537 237.851 63.3249 239.451 68.4492 238.361L68.4682 238.423L78.5946 235.316L98.5522 229.193L118.839 222.969C121.01 222.303 122.24 220.023 121.618 217.85C120.976 215.609 118.524 214.366 116.295 215.049L95.6389 221.387L95.1586 219.821L125.822 210.413C128.41 209.62 129.863 206.878 129.069 204.291C128.276 201.704 125.535 200.25 122.947 201.044L95.1195 209.581L94.6393 208.016L130.355 197.058C133.163 196.196 134.714 193.174 133.745 190.374ZM71.4548 200.263L71.4562 200.268L71.4548 200.263Z" fill="#FFBEAA"/>
<path d="M133.745 190.374C133.703 190.254 133.653 190.138 133.603 190.023L34.6738 223.82L39.3654 239.067C47.8672 236.458 54.5335 234.413 54.5335 234.413C54.5373 234.412 54.5419 234.413 54.5449 234.416C58.154 237.851 63.3252 239.451 68.4495 238.361L68.4685 238.423L78.5948 235.316L98.5525 229.193L118.839 222.969C121.01 222.303 122.241 220.023 121.618 217.85C120.976 215.609 118.524 214.366 116.296 215.049L95.6392 221.387L95.1589 219.821L125.822 210.413C128.41 209.62 129.864 206.878 129.07 204.291C128.276 201.704 125.535 200.25 122.948 201.044L95.1198 209.581L94.6396 208.016L130.355 197.058C133.163 196.196 134.714 193.174 133.745 190.374Z" fill="#FAA68E"/>
<path d="M132.119 215.174C130.702 212.868 127.685 212.146 125.378 213.563L100.573 228.794L99.7166 227.399L131.552 207.85C134.056 206.312 134.801 202.998 133.162 200.53C131.6 198.178 128.403 197.566 125.998 199.043L96.2905 217.285L95.2575 215.603L122.8 198.69C125.25 197.185 126.016 193.98 124.512 191.53C123.008 189.08 119.802 188.313 117.352 189.818L91.5178 205.681C91.5178 205.681 92.6339 207.496 92.6374 207.505C94.0266 210.801 92.2652 215.075 89.5395 216.953C89.4322 217.026 89.3226 217.098 89.2102 217.167L75.3273 225.692L73.5556 222.806C73.5572 222.801 73.548 222.803 73.5499 222.797L87.2707 214.371C89.893 212.761 90.6822 209.291 88.9672 206.696C87.3312 204.22 83.97 203.571 81.4414 205.124L55.2496 221.207C50.6474 224.033 48.3773 229.232 49.0378 234.269C49.0386 234.274 49.0362 234.278 49.0324 234.281C49.0324 234.281 45.2121 236.627 39.8098 239.944L57.0393 269.415C63.095 265.697 67.4955 262.994 67.4955 262.994C67.499 262.992 67.5036 262.992 67.5072 262.994C71.8612 265.417 77.2684 265.671 81.9566 263.334L81.9906 263.389L91.0169 257.846L108.806 246.922L126.889 235.818C128.824 234.63 129.445 232.114 128.298 230.166C127.116 228.157 124.431 227.568 122.444 228.787L104.032 240.094L103.175 238.698L130.507 221.914C132.813 220.498 133.535 217.481 132.119 215.174ZM75.33 225.696L75.3327 225.701L75.33 225.696Z" fill="#FFDECF"/>
<path d="M132.119 215.174C130.702 212.868 127.685 212.146 125.378 213.563L100.573 228.794L99.7166 227.399L131.552 207.85C134.056 206.312 134.801 202.998 133.162 200.53C133.112 200.455 133.057 200.387 133.004 200.316L49.331 256.231L57.0387 269.415C63.0944 265.697 67.4949 262.994 67.4949 262.994C67.4985 262.992 67.5031 262.992 67.5066 262.994C71.8607 265.417 77.2678 265.671 81.9561 263.334L81.99 263.389L91.0163 257.846L108.806 246.922L126.889 235.818C128.824 234.63 129.444 232.114 128.298 230.166C127.115 228.157 124.43 227.568 122.444 228.787L104.031 240.094L103.174 238.698L130.507 221.914C132.813 220.498 133.535 217.481 132.119 215.174Z" fill="#FFCDBE"/>
<path d="M30.2497 199.198L12.3288 204.697C12.1113 206.935 12 209.205 12 211.5C12 218.532 13.0471 225.319 14.989 231.716L37.8087 223.837L30.2497 199.198Z" fill="#E9EDF5"/>
<path d="M14.6752 230.652C16.0315 235.393 17.8779 239.928 20.157 244.196C21.3629 246.455 44.1763 244.591 44.1763 244.591L37.5068 222.852L14.6752 230.652Z" fill="#CDD2E1"/>
<path d="M38.9679 232.648L20.157 244.199C24.4144 252.169 30.1802 259.213 37.0729 264.948L52.4313 254.573L38.9679 232.648Z" fill="white"/>
<path d="M36.726 264.654C42.905 269.864 50.0024 274.019 57.7443 276.835L63.812 273.109L52.25 254.28L36.726 264.654Z" fill="#E9EDF5"/>
<path d="M35.9658 254.44C38.4262 253.027 39.2751 249.887 37.8618 247.426C36.4486 244.966 33.3083 244.117 30.8479 245.53C28.3875 246.944 27.5386 250.084 28.9519 252.544C30.3651 255.005 33.5053 255.854 35.9658 254.44Z" fill="#7E8596"/>
<path d="M27.5193 212.454C28.0273 209.661 26.1754 206.986 23.3829 206.478C20.5905 205.97 17.915 207.822 17.407 210.614C16.899 213.407 18.7509 216.082 21.5434 216.59C24.3358 217.098 27.0114 215.246 27.5193 212.454Z" fill="#7E8596"/>
<path d="M114.004 165.091L101.758 177.338L95.9999 171.579L108.246 159.333L114.004 165.091Z" fill="#FFE171"/>
<path d="M54.5721 162.898L66.8184 175.144L61.0602 180.902L48.8139 168.656L54.5721 162.898Z" fill="#F9F871"/>
<path d="M85.572 151.021V168.343H77.4274V151.021H85.572Z" fill="#F9F871"/>
<path d="M81.5326 151.021H85.5723V168.343H81.5326V151.021Z" fill="#FFE171"/>
</g>
<path d="M244.162 109H208.838C203.861 109 199.828 104.966 199.828 99.9894V27.0106C199.828 22.0338 203.861 18 208.838 18H244.162C249.139 18 253.172 22.0338 253.172 27.0106V99.9894C253.172 104.966 249.139 109 244.162 109Z" fill="white"/>
<path d="M248.466 27.4138H204.534V94.8793H248.466V27.4138Z" fill="#4D7EF0"/>
<path d="M231.207 24.2759H221.793C220.925 24.2759 220.224 23.5746 220.224 22.707C220.224 21.8393 220.925 21.138 221.793 21.138H231.207C232.075 21.138 232.776 21.8393 232.776 22.707C232.776 23.5746 232.075 24.2759 231.207 24.2759Z" fill="#4D7EF0"/>
<path d="M245.328 24.2759H243.759C242.891 24.2759 242.19 23.5746 242.19 22.707C242.19 21.8393 242.891 21.138 243.759 21.138H245.328C246.195 21.138 246.897 21.8393 246.897 22.707C246.897 23.5746 246.195 24.2759 245.328 24.2759Z" fill="#4D7EF0"/>
<path d="M239.052 24.2759H237.483C236.615 24.2759 235.914 23.5746 235.914 22.707C235.914 21.8393 236.615 21.138 237.483 21.138H239.052C239.919 21.138 240.621 21.8393 240.621 22.707C240.621 23.5746 239.919 24.2759 239.052 24.2759Z" fill="#4D7EF0"/>
<path d="M230.422 104.293H222.578C221.283 104.293 220.224 103.234 220.224 101.94C220.224 100.645 221.283 99.5862 222.578 99.5862H230.422C231.717 99.5862 232.776 100.645 232.776 101.94C232.776 103.234 231.717 104.293 230.422 104.293Z" fill="#4D7EF0"/>
<path d="M200.505 148.503L201.327 150.327L200.505 148.503ZM135.827 156.906C136.757 156.31 137.028 155.073 136.432 154.143C135.836 153.213 134.599 152.942 133.669 153.538L135.827 156.906ZM141.918 149.104C140.904 149.544 140.439 150.722 140.879 151.735C141.319 152.748 142.497 153.213 143.51 152.773L141.918 149.104ZM151.737 150.119C152.817 149.89 153.507 148.828 153.278 147.748C153.048 146.667 151.986 145.977 150.906 146.207L151.737 150.119ZM160.307 145.221C159.202 145.225 158.31 146.124 158.314 147.229C158.318 148.333 159.216 149.225 160.321 149.221L160.307 145.221ZM169.048 149.904C170.142 150.063 171.156 149.305 171.315 148.212C171.474 147.119 170.717 146.104 169.624 145.945L169.048 149.904ZM178.619 147.521C177.532 147.323 176.49 148.043 176.292 149.13C176.094 150.216 176.814 151.258 177.901 151.456L178.619 147.521ZM187.115 152.701C188.217 152.766 189.164 151.924 189.228 150.822C189.293 149.719 188.452 148.773 187.349 148.708L187.115 152.701ZM195.745 148.045C194.673 148.311 194.019 149.396 194.285 150.468C194.551 151.54 195.635 152.194 196.707 151.928L195.745 148.045ZM205.501 148.127C206.445 147.553 206.745 146.322 206.171 145.379C205.597 144.435 204.366 144.135 203.423 144.709L205.501 148.127ZM210.078 139.492C209.292 140.268 209.283 141.534 210.059 142.32C210.835 143.107 212.101 143.115 212.887 142.339L210.078 139.492ZM218.82 135.135C219.435 134.217 219.189 132.975 218.272 132.36C217.354 131.745 216.112 131.99 215.497 132.907L218.82 135.135ZM219.605 125.384C219.165 126.398 219.63 127.575 220.643 128.015C221.657 128.455 222.835 127.99 223.274 126.976L219.605 125.384ZM132.185 159.414C133.422 158.503 134.636 157.67 135.827 156.906L133.669 153.538C132.403 154.35 131.118 155.233 129.815 156.192L132.185 159.414ZM143.51 152.773C146.374 151.53 149.109 150.677 151.737 150.119L150.906 146.207C148.016 146.82 145.025 147.755 141.918 149.104L143.51 152.773ZM160.321 149.221C163.317 149.211 166.21 149.491 169.048 149.904L169.624 145.945C166.661 145.515 163.56 145.21 160.307 145.221L160.321 149.221ZM177.901 151.456C180.965 152.015 184.042 152.521 187.115 152.701L187.349 148.708C184.534 148.543 181.66 148.076 178.619 147.521L177.901 151.456ZM196.707 151.928C198.243 151.547 199.782 151.023 201.327 150.327L199.684 146.68C198.362 147.275 197.052 147.722 195.745 148.045L196.707 151.928ZM201.327 150.327C202.801 149.662 204.191 148.923 205.501 148.127L203.423 144.709C202.248 145.423 201.003 146.085 199.684 146.68L201.327 150.327ZM212.887 142.339C215.271 139.988 217.229 137.507 218.82 135.135L215.497 132.907C214.033 135.092 212.242 137.357 210.078 139.492L212.887 142.339ZM223.274 126.976C223.845 125.66 224.252 124.566 224.518 123.794C224.651 123.407 224.749 123.101 224.815 122.887C224.848 122.78 224.873 122.696 224.891 122.636C224.899 122.606 224.906 122.583 224.911 122.565C224.914 122.557 224.916 122.549 224.917 122.544C224.918 122.541 224.918 122.539 224.919 122.537C224.919 122.536 224.92 122.535 224.92 122.534C224.92 122.534 224.92 122.534 224.92 122.533C224.92 122.533 224.92 122.533 224.92 122.533C224.92 122.533 224.92 122.532 222.992 122C221.065 121.468 221.065 121.467 221.065 121.467C221.065 121.467 221.065 121.467 221.065 121.467C221.065 121.467 221.065 121.466 221.065 121.466C221.065 121.466 221.065 121.466 221.065 121.465C221.065 121.465 221.065 121.465 221.065 121.466C221.065 121.467 221.064 121.469 221.063 121.473C221.061 121.481 221.057 121.496 221.051 121.516C221.039 121.557 221.02 121.621 220.993 121.709C220.939 121.883 220.854 122.148 220.736 122.491C220.5 123.177 220.13 124.173 219.605 125.384L223.274 126.976Z" fill="white"/>
<path d="M274.179 71.8395C273.622 71.8395 273.064 71.626 272.637 71.2034C271.788 70.3538 271.788 68.9727 272.637 68.1231C273.875 66.8858 274.554 65.2476 274.554 63.5005C274.554 61.7535 273.875 60.1153 272.642 58.878C271.792 58.0284 271.792 56.6473 272.642 55.7977C273.491 54.9481 274.872 54.9481 275.722 55.7977C277.778 57.8541 278.911 60.5902 278.911 63.5005C278.911 66.4109 277.778 69.147 275.722 71.2034C275.295 71.626 274.737 71.8395 274.179 71.8395Z" fill="#FFE171"/>
<path d="M280.34 78C279.782 78 279.225 77.7865 278.798 77.3639C277.948 76.5143 277.948 75.1332 278.798 74.2836C281.682 71.3994 283.268 67.5742 283.268 63.5005C283.268 59.4269 281.682 55.5973 278.802 52.7174C277.952 51.8679 277.952 50.4868 278.802 49.6372C279.652 48.7876 281.033 48.7876 281.882 49.6372C285.586 53.3405 287.625 58.2637 287.625 63.5005C287.625 68.7374 285.586 73.6606 281.882 77.3639C281.455 77.7865 280.898 78 280.34 78Z" fill="#FFE171"/>
<path d="M178.445 55.1605C179.003 55.1605 179.56 55.374 179.987 55.7966C180.837 56.6462 180.837 58.0273 179.987 58.8769C178.75 60.1142 178.07 61.7524 178.07 63.4995C178.07 65.2465 178.75 66.8847 179.983 68.122C180.833 68.9716 180.833 70.3527 179.983 71.2023C179.133 72.0519 177.752 72.0519 176.903 71.2023C174.846 69.1459 173.714 66.4098 173.714 63.4995C173.714 60.5891 174.846 57.853 176.903 55.7966C177.33 55.374 177.887 55.1605 178.445 55.1605Z" fill="#FFE171"/>
<path d="M172.285 49C172.842 49 173.4 49.2135 173.827 49.6361C174.676 50.4857 174.676 51.8668 173.827 52.7164C170.943 55.6006 169.357 59.4258 169.357 63.4995C169.357 67.5731 170.943 71.4027 173.823 74.2826C174.672 75.1321 174.672 76.5132 173.823 77.3628C172.973 78.2124 171.592 78.2124 170.742 77.3628C167.039 73.6595 165 68.7363 165 63.4995C165 58.2626 167.039 53.3394 170.742 49.6361C171.169 49.2135 171.727 49 172.285 49Z" fill="#FFE171"/>
<defs>
<clipPath id="clip0_101_217">
<rect width="139" height="139" fill="white" transform="translate(12 142)"/>
</clipPath>
</defs>
</svg>
