<svg width="300" height="300" viewBox="0 0 300 300" fill="none" xmlns="http://www.w3.org/2000/svg">
<path d="M246.222 111.092C244.521 106.18 239.103 103.614 234.133 105.139L172.752 123.97L171.685 120.494L228.593 103.035C233.655 101.482 236.5 96.119 234.947 91.0565C233.394 85.9945 228.031 83.15 222.969 84.703L169.591 101.08C169.591 101.08 170.745 104.83 170.747 104.847C171.705 111.365 166.594 118.174 160.868 120.266C160.642 120.348 160.414 120.425 160.182 120.496L131.497 129.297L129.668 123.335C129.674 123.325 129.657 123.325 129.662 123.315L158.012 114.617C163.43 112.955 166.437 107.131 164.576 101.713C162.8 96.544 157.106 93.8375 151.881 95.4405L97.7636 112.044C88.2546 114.961 81.8106 123.184 80.6656 132.472C80.6651 132.48 80.6591 132.487 80.6511 132.489C80.6511 132.489 68.9601 136.076 53.9136 140.692L72.3991 200.771C88.0571 195.967 100.335 192.2 100.335 192.2C100.342 192.198 100.35 192.199 100.356 192.205C107.003 198.531 116.527 201.478 125.964 199.472L125.999 199.586L144.649 193.864L181.406 182.587L218.769 171.123C222.766 169.897 225.033 165.697 223.886 161.695C222.704 157.567 218.188 155.278 214.084 156.537L176.04 168.209L175.156 165.326L231.629 147.999C236.395 146.537 239.072 141.489 237.61 136.724C236.148 131.959 231.1 129.281 226.335 130.743L175.084 146.467L174.199 143.583L239.977 123.402C245.15 121.815 248.007 116.25 246.222 111.092ZM131.5 129.305L131.502 129.314L131.5 129.305Z" fill="#FFBEAA"/>
<path d="M246.222 111.092C246.145 110.87 246.052 110.658 245.96 110.446L63.759 172.689L72.3995 200.77C88.0575 195.966 100.335 192.199 100.335 192.199C100.342 192.197 100.351 192.199 100.356 192.204C107.003 198.531 116.527 201.478 125.965 199.471L126 199.585L144.65 193.863L181.406 182.586L218.769 171.123C222.767 169.896 225.033 165.696 223.887 161.694C222.705 157.567 218.189 155.278 214.084 156.537L176.041 168.209L175.156 165.325L231.63 147.999C236.395 146.537 239.073 141.488 237.611 136.723C236.149 131.958 231.101 129.28 226.335 130.742L175.084 146.466L174.2 143.583L239.978 123.402C245.15 121.815 248.007 116.249 246.222 111.092Z" fill="#FAA68E"/>
<path d="M243.226 156.767C240.617 152.52 235.06 151.191 230.812 153.799L185.128 181.851L183.55 179.281L242.183 143.277C246.794 140.446 248.167 134.342 245.147 129.796C242.271 125.465 236.383 124.337 231.953 127.057L177.24 160.655L175.338 157.556L226.064 126.408C230.576 123.637 231.987 117.733 229.217 113.221C226.446 108.709 220.542 107.297 216.03 110.068L168.45 139.284C168.45 139.284 170.506 142.626 170.512 142.642C173.071 148.712 169.827 156.584 164.807 160.043C164.609 160.178 164.407 160.31 164.2 160.437L138.632 176.138L135.369 170.824C135.372 170.813 135.355 170.817 135.358 170.806L160.628 155.289C165.458 152.323 166.911 145.932 163.753 141.152C160.74 136.592 154.549 135.397 149.892 138.257L101.654 167.878C93.178 173.083 88.997 182.657 90.2135 191.935C90.215 191.943 90.2105 191.952 90.2035 191.956C90.2035 191.956 83.1675 196.277 73.218 202.386L104.95 256.664C116.103 249.816 124.208 244.839 124.208 244.839C124.214 244.835 124.223 244.835 124.229 244.839C132.248 249.3 142.207 249.769 150.841 245.464L150.904 245.565L167.528 235.357L200.291 215.238L233.595 194.788C237.158 192.6 238.301 187.966 236.19 184.378C234.012 180.678 229.067 179.592 225.408 181.839L191.498 202.662L189.92 200.092L240.258 169.181C244.505 166.573 245.834 161.015 243.226 156.767ZM138.637 176.146L138.642 176.154L138.637 176.146Z" fill="#FFDECF"/>
<path d="M243.225 156.767C240.617 152.519 235.059 151.19 230.811 153.799L185.128 181.851L183.55 179.281L242.182 143.277C246.793 140.445 248.166 134.342 245.147 129.795C245.055 129.658 244.953 129.533 244.855 129.402L90.7534 232.382L104.949 256.664C116.102 249.815 124.206 244.838 124.206 244.838C124.213 244.834 124.221 244.834 124.228 244.838C132.247 249.299 142.205 249.769 150.84 245.463L150.902 245.565L167.526 235.357L200.29 215.238L233.594 194.787C237.157 192.599 238.3 187.966 236.188 184.378C234.011 180.678 229.065 179.592 225.407 181.838L191.496 202.661L189.918 200.091L240.257 169.18C244.505 166.572 245.833 161.014 243.225 156.767Z" fill="#FFCDBE"/>
<path d="M55.611 127.344L22.6055 137.47C22.205 141.593 22 145.772 22 150C22 162.95 23.9285 175.45 27.505 187.232L69.5325 172.721L55.611 127.344Z" fill="#E9EDF5"/>
<path d="M26.927 185.272C29.425 194.004 32.8255 202.356 37.023 210.218C39.244 214.378 81.26 210.944 81.26 210.944L68.9765 170.907L26.927 185.272Z" fill="#CDD2E1"/>
<path d="M71.6674 188.948L37.0229 210.222C44.8639 224.902 55.483 237.873 68.1775 248.436L96.4634 229.329L71.6674 188.948Z" fill="white"/>
<path d="M67.5386 247.895C78.9186 257.491 91.9901 265.143 106.249 270.329L117.424 263.467L96.1296 228.789L67.5386 247.895Z" fill="#E9EDF5"/>
<path d="M66.1383 229.084C70.6697 226.482 72.2332 220.698 69.6303 216.167C67.0275 211.635 61.2441 210.072 56.7127 212.675C52.1813 215.278 50.6178 221.061 53.2206 225.592C55.8235 230.124 61.6069 231.687 66.1383 229.084Z" fill="#7E8596"/>
<path d="M50.5823 151.757C51.5178 146.614 48.1071 141.686 42.9642 140.751C37.8213 139.815 32.8937 143.226 31.9581 148.369C31.0226 153.512 34.4333 158.439 39.5762 159.375C44.7192 160.31 49.6467 156.9 50.5823 151.757Z" fill="#7E8596"/>
<path d="M209.865 64.5281L187.31 87.0824L176.705 76.4774L199.26 53.9231L209.865 64.5281Z" fill="#FFE171"/>
<path d="M100.406 60.4876L122.961 83.042L112.356 93.647L89.8013 71.0926L100.406 60.4876Z" fill="#F9F871"/>
<path d="M157.5 38.615V70.5165H142.5V38.615H157.5Z" fill="#F9F871"/>
<path d="M150.06 38.6145H157.5V70.516H150.06V38.6145Z" fill="#FFE171"/>
</svg>
