<svg width="24" height="24" viewBox="0 0 24 24" fill="none" xmlns="http://www.w3.org/2000/svg">
<path fill-rule="evenodd" clip-rule="evenodd" d="M12.0253 23.9748C11.7979 23.9748 11.5453 23.9748 11.2674 23.9495C11.0147 23.9243 10.7621 23.8991 10.5095 23.8738C10.0547 23.8233 9.67579 23.5962 9.39789 23.2681C9.12 22.9401 8.94316 22.5363 8.94316 22.082V20.8959C8.76632 20.8202 8.56421 20.7697 8.38737 20.694C8.21053 20.6183 8.03368 20.5426 7.85684 20.4416L7.02316 21.2745C6.84632 21.4511 6.64421 21.5773 6.44211 21.653C6.21474 21.7539 5.98737 21.7792 5.76 21.7792C5.55789 21.7792 5.38105 21.7539 5.17895 21.6782C5.00211 21.6025 4.82526 21.5268 4.64842 21.4006C4.24421 21.0978 3.86526 20.7697 3.51158 20.4164C3.15789 20.0631 2.82947 19.6845 2.52632 19.306C2.24842 18.9527 2.12211 18.5237 2.14737 18.0946C2.17263 17.6656 2.34947 17.2618 2.67789 16.9338L3.51158 16.1009C3.43579 15.9243 3.33474 15.7476 3.28421 15.571C3.20842 15.3943 3.13263 15.2177 3.08211 15.0158H1.89474C1.44 15.0158 1.03579 14.8391 0.707368 14.5615C0.378947 14.2839 0.176842 13.8801 0.101053 13.4511C0.0505263 12.9464 0 12.4416 0 11.9621C0 11.4827 0.0252631 10.9527 0.101053 10.4732C0.151579 10.0189 0.378947 9.64038 0.707368 9.36278C1.03579 9.08517 1.44 8.90852 1.89474 8.90852H3.08211C3.15789 8.73186 3.20842 8.55521 3.28421 8.37855C3.36 8.20189 3.43579 8.02524 3.53684 7.84858L2.70316 7.01577C2.37474 6.6877 2.19789 6.28391 2.17263 5.85489C2.14737 5.42587 2.27368 4.99685 2.55158 4.64353C2.85474 4.23975 3.20842 3.8612 3.53684 3.50789C3.89053 3.15457 4.26947 2.8265 4.67368 2.52366C4.82526 2.39748 5.00211 2.32177 5.20421 2.24606C5.40632 2.17035 5.58316 2.14511 5.78526 2.14511C6.01263 2.14511 6.26526 2.19558 6.46737 2.27129C6.69474 2.37224 6.87158 2.49842 7.04842 2.64984L7.8821 3.48265C8.05895 3.40694 8.23579 3.33123 8.41263 3.25552C8.58947 3.17981 8.76632 3.1041 8.96842 3.05363V1.86751C8.96842 1.41325 9.14526 1.00946 9.42316 0.681388C9.70105 0.353312 10.1053 0.15142 10.5347 0.0757098C11.0147 0.0252366 11.52 0 12.0253 0C12.5305 0 13.0358 0.0252366 13.5158 0.100946C13.9705 0.15142 14.3495 0.378549 14.6274 0.706625C14.9053 1.0347 15.0821 1.43849 15.0821 1.89274V3.07886C15.2589 3.15457 15.4358 3.20505 15.6126 3.28076C15.7895 3.35647 15.9663 3.43218 16.1432 3.53312L16.9768 2.70032C17.1537 2.52366 17.3558 2.39748 17.5579 2.32177C17.7853 2.22082 18.0126 2.19558 18.24 2.19558C18.4421 2.19558 18.6442 2.22082 18.8211 2.29653C18.9979 2.37224 19.1747 2.44795 19.3516 2.57413C19.7558 2.87697 20.1347 3.20505 20.4884 3.55836C20.8421 3.91167 21.1705 4.29022 21.4737 4.69401C21.7516 5.04732 21.8779 5.47634 21.8526 5.90536C21.8274 6.33439 21.6505 6.73817 21.3221 7.06625L20.4884 7.89905C20.5642 8.07571 20.6653 8.25237 20.7158 8.42902C20.7916 8.60568 20.8674 8.78233 20.9179 8.98423H22.1053C22.56 8.98423 22.9642 9.16088 23.2926 9.43849C23.6211 9.71609 23.8232 10.1199 23.8989 10.5489C23.9495 11.0536 24 11.5331 24 12.0379C24 12.5426 23.9747 13.0473 23.8989 13.5268C23.8484 13.9811 23.6211 14.3596 23.2926 14.6372C22.9642 14.9148 22.56 15.0915 22.1053 15.0915H20.9179C20.8421 15.2681 20.7916 15.47 20.7158 15.6467C20.64 15.8233 20.5642 16 20.4884 16.1767L21.3221 17.0095C21.6505 17.3375 21.8274 17.7413 21.8526 18.1703C21.8779 18.5994 21.7516 19.0284 21.4737 19.3817C21.1705 19.7855 20.8421 20.164 20.4884 20.4921C20.1347 20.8454 19.7558 21.1735 19.3516 21.4763C19.2 21.6025 19.0232 21.7035 18.8211 21.7539C18.6189 21.8297 18.4421 21.8549 18.24 21.8549C18.0126 21.8549 17.76 21.8044 17.5579 21.7287C17.3305 21.6278 17.1537 21.5016 16.9768 21.3502L16.1432 20.5174C15.9663 20.5931 15.7895 20.694 15.6126 20.7445C15.4358 20.8202 15.2589 20.8959 15.0568 20.9464V22.1325C15.0568 22.5868 14.88 22.9905 14.6021 23.3186C14.3242 23.6467 13.92 23.8486 13.4905 23.9243C13.2632 23.9495 13.0105 23.9748 12.7326 24C12.5053 23.9748 12.2526 23.9748 12.0253 23.9748ZM7.83158 18.347C7.9579 18.347 8.10947 18.3722 8.26105 18.3975C8.38737 18.4227 8.53895 18.4732 8.66526 18.5489C8.8421 18.6246 9.01895 18.7256 9.22105 18.8013C9.42316 18.877 9.6 18.9527 9.77684 19.0032C10.1558 19.1293 10.4589 19.3565 10.6863 19.6593C10.9137 19.9621 11.04 20.3407 11.04 20.7192V21.8549C11.3684 21.8801 11.7221 21.9054 12.0505 21.9054C12.3789 21.9054 12.7326 21.8801 13.0611 21.8549V20.7192C13.0611 20.3407 13.1874 19.9621 13.4147 19.6593C13.6421 19.3565 13.9453 19.1293 14.3242 19.0032C14.5011 18.9527 14.7032 18.877 14.88 18.8013C15.0568 18.7256 15.2337 18.6498 15.4358 18.5489C15.7895 18.3722 16.1684 18.3218 16.5221 18.3722C16.9011 18.4227 17.2295 18.5994 17.5074 18.877L18.3158 19.6845C18.5684 19.4827 18.8211 19.2555 19.0737 19.0032C19.3011 18.776 19.5284 18.5237 19.7558 18.2461L18.9474 17.4385C18.6695 17.1609 18.4926 16.8076 18.4421 16.4543C18.3916 16.1009 18.4421 15.6972 18.6189 15.3691C18.72 15.1924 18.7958 15.0158 18.8716 14.8139C18.9474 14.612 19.0232 14.4353 19.0737 14.2587C19.2 13.8801 19.4274 13.5773 19.7305 13.3502C20.0337 13.123 20.4126 12.9968 20.7916 12.9968H21.9284C21.9537 12.6688 21.9789 12.3155 21.9789 11.9874C21.9789 11.6593 21.9537 11.306 21.9284 10.9779H20.7916C20.4126 10.9779 20.0337 10.8517 19.7305 10.6246C19.4274 10.3975 19.2 10.0946 19.0737 9.71609C19.0232 9.5142 18.9474 9.33754 18.8716 9.13565C18.7958 8.95899 18.72 8.78234 18.6189 8.58044C18.4421 8.22713 18.3916 7.84858 18.4421 7.47003C18.4926 7.09148 18.6695 6.76341 18.9474 6.48581L19.7558 5.67823C19.5284 5.40063 19.3263 5.1735 19.0737 4.92114C18.8463 4.69401 18.5937 4.46688 18.3158 4.23975L17.5074 5.04732C17.2295 5.32492 16.8758 5.50158 16.5221 5.55205C16.1432 5.60252 15.7642 5.55205 15.4358 5.37539C15.2589 5.27445 15.0821 5.19874 14.88 5.12303C14.7032 5.04732 14.5011 4.97161 14.2989 4.92114C13.92 4.79495 13.6168 4.56782 13.3895 4.26498C13.1621 3.96215 13.0358 3.5836 13.0358 3.20505V2.0694C12.7074 2.04416 12.3537 2.01893 12.0253 2.01893C11.6968 2.01893 11.3432 2.04416 11.0147 2.0694V3.20505C11.0147 3.5836 10.8884 3.96215 10.6611 4.26498C10.4337 4.56782 10.1305 4.79495 9.75158 4.92114C9.57474 4.97161 9.37263 5.04732 9.17053 5.12303C8.99368 5.19874 8.79158 5.27445 8.61474 5.37539C8.26105 5.55205 7.88211 5.60252 7.52842 5.55205C7.14947 5.50158 6.79579 5.32492 6.54316 5.04732L5.73474 4.23975C5.48211 4.46688 5.22947 4.66877 4.97684 4.92114C4.74947 5.14827 4.52211 5.40063 4.29474 5.67823L5.10316 6.48581C5.38105 6.76341 5.55789 7.11672 5.60842 7.47003C5.65895 7.82334 5.60842 8.22713 5.43158 8.55521C5.33053 8.73186 5.25474 8.90852 5.17895 9.11041C5.10316 9.28707 5.02737 9.48896 4.97684 9.69085C4.85053 10.0694 4.62316 10.3722 4.32 10.5994C4.01684 10.8265 3.63789 10.9527 3.25895 10.9527H2.12211C2.09684 11.2808 2.07158 11.6341 2.07158 11.9621C2.07158 12.2902 2.09684 12.6435 2.12211 12.9716H3.25895C3.63789 12.9716 4.01684 13.0978 4.32 13.3249C4.62316 13.5521 4.85053 13.8549 4.97684 14.2334C5.02737 14.4353 5.10316 14.612 5.17895 14.8139C5.25474 14.9905 5.33053 15.1672 5.43158 15.3691C5.60842 15.7224 5.65895 16.1009 5.60842 16.4795C5.55789 16.858 5.38105 17.1861 5.10316 17.4637L4.29474 18.2713C4.49684 18.5237 4.72421 18.776 4.97684 19.0284C5.20421 19.2555 5.45684 19.4827 5.73474 19.7098L6.54316 18.9022C6.72 18.7256 6.92211 18.5994 7.12421 18.5237C7.35158 18.3975 7.57895 18.347 7.83158 18.347ZM12.0253 16.8328C12.6821 16.8328 13.3137 16.7066 13.8947 16.4543C14.4758 16.2019 15.0063 15.8486 15.4611 15.3943C15.9158 14.9401 16.2695 14.4101 16.5221 13.8297C16.7747 13.2492 16.9011 12.6183 16.9011 11.9621C16.9011 11.306 16.7747 10.6751 16.5221 10.0946C16.2695 9.5142 15.9158 8.98423 15.4611 8.52997C15.0063 8.07571 14.4758 7.7224 13.8947 7.47003C13.3137 7.21767 12.6821 7.09148 12.0253 7.09148C11.3684 7.09148 10.7368 7.21767 10.1558 7.47003C9.57474 7.7224 9.04421 8.07571 8.58947 8.52997C8.13474 8.98423 7.78105 9.5142 7.52842 10.0946C7.27579 10.6751 7.14947 11.306 7.14947 11.9621C7.14947 12.6183 7.27579 13.2492 7.52842 13.8297C7.78105 14.4101 8.13474 14.9401 8.58947 15.3943C9.04421 15.8486 9.57474 16.2019 10.1558 16.4543C10.7368 16.7066 11.3684 16.8328 12.0253 16.8328ZM12.0253 9.18612C11.6463 9.18612 11.2926 9.26183 10.9642 9.38801C10.6358 9.5142 10.3326 9.74133 10.0547 9.99369C9.8021 10.2461 9.57474 10.5741 9.44842 10.9022C9.3221 11.2303 9.24632 11.5836 9.24632 11.9621C9.24632 12.3407 9.3221 12.694 9.44842 13.0221C9.57474 13.3502 9.8021 13.653 10.0547 13.9306C10.3074 14.183 10.6358 14.4101 10.9642 14.5363C11.2926 14.6625 11.6463 14.7382 12.0253 14.7382C12.4042 14.7382 12.7579 14.6625 13.0863 14.5363C13.4147 14.4101 13.7179 14.183 13.9958 13.9306C14.2484 13.653 14.4758 13.3502 14.6021 13.0221C14.7284 12.694 14.8042 12.3407 14.8042 11.9621C14.8042 11.5836 14.7284 11.2303 14.6021 10.9022C14.4758 10.5741 14.2484 10.2713 13.9958 9.99369C13.7179 9.71609 13.4147 9.5142 13.0863 9.38801C12.7579 9.26183 12.4042 9.18612 12.0253 9.18612Z" fill="white"/>
</svg>
