<svg width="300" height="300" viewBox="0 0 300 300" fill="none" xmlns="http://www.w3.org/2000/svg">
<path d="M221 81C221.001 85.8591 220.039 90.6707 218.171 95.16C216.302 99.6493 213.563 103.728 210.11 107.164C206.657 110.6 202.557 113.326 198.045 115.185C193.533 117.044 188.698 118.001 183.814 118H173.19C167.699 118.007 162.275 116.801 157.31 114.467L136.004 118L141.768 100.795C138.207 95.1988 136.221 88.7542 136.017 82.1339C135.814 75.5136 137.4 68.9602 140.61 63.1579C143.82 57.3555 148.537 52.5169 154.267 49.1471C159.998 45.7772 166.533 43.9997 173.19 44H183.814C193.676 44.0003 203.135 47.8986 210.108 54.8373C217.082 61.7761 221 71.1871 221 81Z" fill="white"/>
<path d="M44 146H58.6946V170H44C40.8174 170 37.7652 168.736 35.5147 166.485C33.2643 164.235 32 161.183 32 158C32 154.817 33.2643 151.765 35.5147 149.515C37.7652 147.264 40.8174 146 44 146Z" fill="#FAA68E"/>
<path d="M124 170H109.306V146H124C127.183 146 130.235 147.264 132.485 149.515C134.736 151.765 136 154.817 136 158C136 161.183 134.736 164.235 132.485 166.485C130.235 168.736 127.183 170 124 170Z" fill="#FAA68E"/>
<path d="M164 276.925V278H4V276.925C3.99886 273.3 4.22096 269.678 4.66504 266.08C5.10954 262.483 5.77243 258.916 6.65004 255.4C9.1306 245.475 14.3476 236.445 21.7074 229.339C29.0672 222.233 38.274 217.336 48.28 215.205C50.2542 214.781 52.2507 214.469 54.26 214.27C56.055 214.09 57.86 214 59.675 214H60C63.1809 213.997 66.2308 212.733 68.4805 210.484C70.7301 208.235 71.9959 205.186 72 202.005V198H96V202.005C96.0041 205.186 97.2699 208.235 99.5196 210.484C101.769 212.733 104.819 213.997 108 214H108.325C110.14 214 111.945 214.09 113.74 214.27C115.749 214.469 117.746 214.781 119.72 215.205C120.955 215.465 122.18 215.77 123.395 216.12C132.611 218.763 140.969 223.784 147.631 230.679C154.293 237.573 159.024 246.099 161.35 255.4C163.11 262.44 164 269.669 164 276.925Z" fill="#FFBEAA"/>
<path d="M164 276.925V278H4V276.925C3.99886 273.3 4.22096 269.678 4.66504 266.08C5.10954 262.483 5.77243 258.916 6.65004 255.4C9.1306 245.475 14.3476 236.445 21.7074 229.339C29.0672 222.233 38.274 217.336 48.28 215.205C50.2542 214.781 52.2507 214.469 54.26 214.27C55.3446 215.859 56.557 217.358 57.885 218.75C61.5791 222.656 66.102 225.684 71.1207 227.611C76.1395 229.538 81.5265 230.315 86.8853 229.885C92.2441 229.455 97.4383 227.829 102.086 225.127C106.733 222.425 110.716 218.715 113.74 214.27C114.845 214.38 115.94 214.525 117.035 214.7C117.935 214.845 118.83 215.013 119.72 215.205C120.955 215.465 122.18 215.77 123.395 216.12C132.611 218.763 140.969 223.784 147.631 230.679C154.293 237.574 159.024 246.099 161.35 255.4C163.11 262.44 164 269.669 164 276.925Z" fill="#C4D4E0"/>
<path d="M113.84 224.88L98.23 245.695C98.8454 246.909 99.3009 248.199 99.585 249.53C100.049 251.694 100.061 253.93 99.6183 256.099C99.1761 258.267 98.2897 260.321 97.015 262.13L85.795 278H16.635L53.395 225.485L57.885 218.75C61.5791 222.656 66.102 225.684 71.1207 227.611C76.1395 229.538 81.5265 230.315 86.8853 229.885C92.2441 229.455 97.4383 227.829 102.086 225.127C106.733 222.425 110.716 218.715 113.74 214.27C114.845 214.38 115.94 214.525 117.035 214.7C117.172 218.36 116.044 221.955 113.84 224.88Z" fill="#A6B2BC"/>
<path d="M113.74 214.27C110.716 218.715 106.733 222.425 102.086 225.127C97.4383 227.829 92.2441 229.455 86.8853 229.885C81.5265 230.315 76.1395 229.538 71.1207 227.611C66.102 225.684 61.5791 222.656 57.885 218.75C56.557 217.358 55.3446 215.859 54.26 214.27C55.27 214.17 56.28 214.095 57.295 214.055C58.085 214.015 58.88 214 59.675 214H60C62.7127 214.004 65.3457 213.083 67.465 211.39C71.9243 215.633 77.8444 218 84 218C90.1557 218 96.0757 215.633 100.535 211.39C102.654 213.083 105.287 214.004 108 214H108.325C110.14 214 111.945 214.09 113.74 214.27Z" fill="#A6B2BC"/>
<path d="M164 276.925V278H108C108 270.025 108.905 262.076 110.7 254.305L114.255 238.9L119.72 215.205C120.955 215.465 122.18 215.77 123.395 216.12C132.611 218.763 140.969 223.784 147.631 230.679C154.293 237.573 159.024 246.099 161.35 255.4C163.11 262.44 164 269.669 164 276.925Z" fill="#396795"/>
<path d="M60 278H4V276.925C3.99886 273.3 4.22096 269.678 4.66504 266.08C5.10954 262.483 5.77243 258.916 6.65004 255.4C9.13031 245.475 14.3473 236.445 21.7071 229.339C29.0669 222.233 38.2739 217.336 48.28 215.205L51.33 228.435L53.745 238.9L57.3 254.305C59.0946 262.076 60.0004 270.025 60 278Z" fill="#396795"/>
<path d="M120 142V166C120 175.548 116.207 184.705 109.456 191.456C102.705 198.207 93.5478 202 84 202C74.4522 202 65.2955 198.207 58.5442 191.456C51.7928 184.705 48 175.548 48 166V142L96 122L120 142Z" fill="#FFBEAA"/>
<path d="M103.34 196.37C97.4974 200.087 90.707 202.042 83.7822 201.999C76.8573 201.957 70.0915 199.919 64.295 196.13C66.3202 194.967 68.5843 194.283 70.9145 194.128C73.2446 193.974 75.5792 194.354 77.74 195.24C80.497 192.124 84.3597 190.205 88.5082 189.891C92.6568 189.576 96.7646 190.891 99.96 193.555L103.34 196.37Z" fill="#FAA68E"/>
<path d="M68 158H60C58.9391 158 57.9217 157.579 57.1716 156.828C56.4214 156.078 56 155.061 56 154C56 152.939 56.4214 151.922 57.1716 151.172C57.9217 150.421 58.9391 150 60 150H68C69.0609 150 70.0783 150.421 70.8284 151.172C71.5786 151.922 72 152.939 72 154C72 155.061 71.5786 156.078 70.8284 156.828C70.0783 157.579 69.0609 158 68 158Z" fill="#AD7D4D"/>
<path d="M108 158H100C98.9391 158 97.9217 157.579 97.1716 156.828C96.4214 156.078 96 155.061 96 154C96 152.939 96.4214 151.922 97.1716 151.172C97.9217 150.421 98.9391 150 100 150H108C109.061 150 110.078 150.421 110.828 151.172C111.579 151.922 112 152.939 112 154C112 155.061 111.579 156.078 110.828 156.828C110.078 157.579 109.061 158 108 158Z" fill="#AD7D4D"/>
<path d="M87.9995 174.001C87.1601 174.001 86.342 173.736 85.6611 173.245C84.9802 172.754 84.4709 172.062 84.2053 171.265L80.2053 159.265C80.0392 158.767 79.9728 158.241 80.01 157.717C80.0473 157.193 80.1873 156.681 80.4222 156.211C80.6571 155.742 80.9822 155.323 81.379 154.978C81.7758 154.634 82.2366 154.371 82.7349 154.205C83.2332 154.039 83.7594 153.973 84.2833 154.01C84.8073 154.047 85.3188 154.187 85.7887 154.422C86.2585 154.657 86.6775 154.982 87.0217 155.379C87.3659 155.776 87.6286 156.237 87.7947 156.735L91.7947 168.735C91.9949 169.336 92.0493 169.977 91.9536 170.603C91.8579 171.23 91.6147 171.825 91.2442 172.339C90.8736 172.853 90.3862 173.272 89.8221 173.561C89.258 173.85 88.6333 174.001 87.9995 174.001Z" fill="#FAA68E"/>
<path d="M64 166C66.2091 166 68 164.209 68 162C68 159.791 66.2091 158 64 158C61.7909 158 60 159.791 60 162C60 164.209 61.7909 166 64 166Z" fill="#966342"/>
<path d="M104 166C106.209 166 108 164.209 108 162C108 159.791 106.209 158 104 158C101.791 158 100 159.791 100 162C100 164.209 101.791 166 104 166Z" fill="#966342"/>
<path d="M128 131.655V146H118.625C114.383 146 110.315 144.314 107.315 141.315L96 130C85.7561 140.244 71.8623 145.999 57.375 146H52.485C47.0521 146 41.8417 143.842 38 140C34.1584 136.158 32.0001 130.948 32 125.515V122C31.9982 121.343 32.1266 120.693 32.3778 120.086C32.6289 119.48 32.9979 118.929 33.4634 118.466C33.9288 118.003 34.4815 117.636 35.0894 117.388C35.6973 117.14 36.3484 117.015 37.005 117.02C37.6534 117.02 38.2952 117.15 38.8928 117.401C39.4904 117.653 40.0317 118.021 40.485 118.485C41.4175 119.417 42.6818 119.94 44 119.94C45.3182 119.94 46.5825 119.417 47.515 118.485L58.1 107.9C61.2386 104.761 64.9646 102.272 69.0654 100.573C73.1662 98.8743 77.5614 98 82 98C86.4387 98 90.8339 98.8743 94.9347 100.573C99.0355 102.272 102.762 104.761 105.9 107.9L108.465 110.465C109.402 111.403 109.928 112.674 109.928 114C109.928 115.326 109.402 116.597 108.465 117.535L108 118H114.345C117.966 118 121.439 119.439 124 122C126.561 124.561 128 128.034 128 131.655Z" fill="#AD7D4D"/>
<path d="M88 190H80C78.9391 190 77.9217 189.579 77.1716 188.828C76.4214 188.078 76 187.061 76 186C76 184.939 76.4214 183.922 77.1716 183.172C77.9217 182.421 78.9391 182 80 182H88C89.0609 182 90.0783 182.421 90.8284 183.172C91.5786 183.922 92 184.939 92 186C92 187.061 91.5786 188.078 90.8284 188.828C90.0783 189.579 89.0609 190 88 190Z" fill="#FAA68E"/>
<path d="M113.74 214.27C110.716 218.715 106.733 222.425 102.086 225.127C97.4383 227.829 92.2441 229.455 86.8853 229.885C81.5265 230.315 76.1395 229.538 71.1207 227.611C66.102 225.684 61.5791 222.656 57.885 218.75L58.77 217.425L58.2049 216.295C57.8432 215.573 57.539 214.824 57.295 214.055C58.085 214.015 58.88 214 59.675 214H60C62.7127 214.004 65.3457 213.083 67.465 211.39C71.9243 215.633 77.8444 218 84 218C90.1557 218 96.0757 215.633 100.535 211.39C102.654 213.083 105.287 214.004 108 214H108.325C110.14 214 111.945 214.09 113.74 214.27Z" fill="#808393"/>
<path d="M132 219.395V246L114.255 238.9L119.72 215.205C120.955 215.465 122.18 215.77 123.395 216.12C126.351 216.967 129.229 218.062 132 219.395Z" fill="#26507A"/>
<path d="M53.745 238.9L40.215 244.315L36 246V219.395C39.9118 217.514 44.0344 216.107 48.28 215.205L51.33 228.435L53.745 238.9Z" fill="#26507A"/>
<path d="M60 278H16.635L51.3299 228.435L53.745 238.9L57.3 254.305C59.0946 262.076 60.0004 270.025 60 278Z" fill="#26507A"/>
<path d="M51.33 228.435L53.745 238.9L40.215 244.315L51.33 228.435Z" fill="#214569"/>
<path d="M64.9614 207.116C64.3458 208.963 64.489 210.978 65.3596 212.719L68 218L60 230L88 246L107.44 220.08C108.67 218.44 109.224 216.389 108.986 214.352C108.748 212.315 107.737 210.447 106.161 209.134L94.8394 199.7C93.9771 198.981 92.9732 198.452 91.8931 198.147C90.8129 197.841 89.6805 197.767 88.5697 197.928C87.4589 198.089 86.3943 198.482 85.4454 199.082C84.4964 199.681 83.6842 200.474 83.0615 201.408L80 206L75.9952 203.33C75.0562 202.704 73.9855 202.303 72.8663 202.158C71.7471 202.013 70.6096 202.129 69.5422 202.495C68.4747 202.861 67.5061 203.468 66.7117 204.27C65.9172 205.071 65.3182 206.045 64.9614 207.116Z" fill="#FFBEAA"/>
<path d="M76 278L90.4803 257.516C91.1241 256.606 91.5704 255.57 91.7905 254.477C92.0106 253.383 91.9995 252.256 91.7581 251.167C91.5168 250.078 91.0503 249.052 90.3888 248.154C89.7273 247.256 88.8853 246.506 87.9169 245.952L60 230L26.4 278H76Z" fill="#396795"/>
<path d="M128 131.655V146H118.625C114.383 146 110.315 144.314 107.315 141.315L96 130L108 118H114.345C117.966 118 121.439 119.439 124 122C126.561 124.561 128 128.034 128 131.655Z" fill="#966342"/>
<path d="M187.928 104H170.072C167.556 104 165.517 101.961 165.517 99.4452V62.5548C165.517 60.0391 167.556 58 170.072 58H187.928C190.444 58 192.483 60.0391 192.483 62.5548V99.4452C192.483 101.961 190.444 104 187.928 104Z" fill="#4D7EF0"/>
<path d="M190.104 62.7586H167.897V96.8621H190.104V62.7586Z" fill="white"/>
<path d="M181.379 61.1724H176.621C176.182 61.1724 175.828 60.8179 175.828 60.3793C175.828 59.9408 176.182 59.5862 176.621 59.5862H181.379C181.818 59.5862 182.172 59.9408 182.172 60.3793C182.172 60.8179 181.818 61.1724 181.379 61.1724Z" fill="white"/>
<path d="M188.517 61.1724H187.724C187.286 61.1724 186.931 60.8179 186.931 60.3793C186.931 59.9408 187.286 59.5862 187.724 59.5862H188.517C188.956 59.5862 189.31 59.9408 189.31 60.3793C189.31 60.8179 188.956 61.1724 188.517 61.1724Z" fill="white"/>
<path d="M185.345 61.1724H184.552C184.113 61.1724 183.759 60.8179 183.759 60.3793C183.759 59.9408 184.113 59.5862 184.552 59.5862H185.345C185.783 59.5862 186.138 59.9408 186.138 60.3793C186.138 60.8179 185.783 61.1724 185.345 61.1724Z" fill="white"/>
<path d="M180.983 101.621H177.017C176.363 101.621 175.828 101.085 175.828 100.431C175.828 99.7767 176.363 99.2414 177.017 99.2414H180.983C181.637 99.2414 182.172 99.7767 182.172 100.431C182.172 101.085 181.637 101.621 180.983 101.621Z" fill="white"/>
</svg>
